<?xml version="1.0" encoding="UTF-8"?>
<svg xmlns="http://www.w3.org/2000/svg" xmlns:xlink="http://www.w3.org/1999/xlink" viewBox="0 0 64 64" width="64px" height="64px">
<g id="surface127889854">
<path style=" stroke:none;fill-rule:nonzero;fill:rgb(100%,100%,100%);fill-opacity:1;" d="M 21.332031 8 C 13.980469 8 8 13.980469 8 21.332031 L 8 42.667969 C 8 50.019531 13.980469 56 21.332031 56 L 42.667969 56 C 50.019531 56 56 50.019531 56 42.667969 L 56 21.332031 C 56 13.980469 50.019531 8 42.667969 8 Z M 21.332031 13.332031 L 42.667969 13.332031 C 47.078125 13.332031 50.667969 16.921875 50.667969 21.332031 L 50.667969 42.667969 C 50.667969 47.078125 47.078125 50.667969 42.667969 50.667969 L 21.332031 50.667969 C 16.921875 50.667969 13.332031 47.078125 13.332031 42.667969 L 13.332031 21.332031 C 13.332031 16.921875 16.921875 13.332031 21.332031 13.332031 Z M 45.332031 16 C 43.859375 16 42.667969 17.195312 42.667969 18.667969 C 42.667969 20.140625 43.859375 21.332031 45.332031 21.332031 C 46.804688 21.332031 48 20.140625 48 18.667969 C 48 17.195312 46.804688 16 45.332031 16 Z M 32 18.667969 C 24.648438 18.667969 18.667969 24.648438 18.667969 32 C 18.667969 39.351562 24.648438 45.332031 32 45.332031 C 39.351562 45.332031 45.332031 39.351562 45.332031 32 C 45.332031 24.648438 39.351562 18.667969 32 18.667969 Z M 32 24 C 36.410156 24 40 27.589844 40 32 C 40 36.410156 36.410156 40 32 40 C 27.589844 40 24 36.410156 24 32 C 24 27.589844 27.589844 24 32 24 Z M 32 24 "/>
</g>
</svg>
