<?xml version="1.0" encoding="UTF-8"?>
<svg xmlns="http://www.w3.org/2000/svg" xmlns:xlink="http://www.w3.org/1999/xlink" viewBox="0 0 64 64" width="64px" height="64px">
<g id="surface18077349">
<path style=" stroke:none;fill-rule:nonzero;fill:rgb(100%,100%,100%);fill-opacity:1;" d="M 53.664062 8.5 C 52.96875 8.53125 52.324219 8.734375 51.753906 8.960938 C 51.222656 9.175781 49.1875 10.050781 45.980469 11.425781 C 42.769531 12.800781 38.519531 14.625 33.988281 16.574219 C 24.921875 20.472656 14.730469 24.863281 9.507812 27.109375 C 9.3125 27.191406 8.628906 27.410156 7.898438 27.980469 C 7.171875 28.546875 6.398438 29.722656 6.398438 31.035156 C 6.398438 32.089844 6.902344 33.140625 7.539062 33.765625 C 8.171875 34.394531 8.84375 34.703125 9.417969 34.9375 C 11.5 35.789062 17.964844 38.433594 19.1875 38.933594 C 19.617188 40.25 21.957031 47.40625 22.5 49.164062 C 22.859375 50.320312 23.199219 51.046875 23.640625 51.621094 C 23.863281 51.910156 24.121094 52.160156 24.433594 52.359375 C 24.558594 52.4375 24.695312 52.5 24.832031 52.554688 L 24.839844 52.558594 C 24.875 52.570312 24.902344 52.59375 24.933594 52.605469 C 24.996094 52.625 25.035156 52.628906 25.117188 52.644531 C 25.441406 52.75 25.769531 52.816406 26.0625 52.816406 C 27.3125 52.816406 28.074219 52.128906 28.074219 52.128906 L 28.121094 52.097656 L 34.542969 46.542969 L 42.328125 53.910156 C 42.4375 54.0625 43.460938 55.464844 45.714844 55.464844 C 47.054688 55.464844 48.117188 54.792969 48.800781 54.078125 C 49.480469 53.363281 49.90625 52.613281 50.085938 51.667969 L 50.085938 51.664062 C 50.257812 50.769531 57.433594 13.925781 57.433594 13.925781 L 57.421875 13.976562 C 57.632812 13.015625 57.6875 12.121094 57.453125 11.242188 C 57.222656 10.359375 56.613281 9.515625 55.855469 9.0625 C 55.097656 8.609375 54.355469 8.46875 53.664062 8.5 Z M 53.261719 12.957031 C 53.253906 13.019531 53.269531 12.988281 53.253906 13.0625 L 53.25 13.085938 L 53.246094 13.113281 C 53.246094 13.113281 46.15625 49.484375 45.894531 50.871094 C 45.914062 50.765625 45.828125 50.972656 45.738281 51.101562 C 45.609375 51.011719 45.351562 50.898438 45.351562 50.898438 L 45.308594 50.855469 L 34.671875 40.792969 L 27.148438 47.292969 L 29.386719 38.332031 C 29.386719 38.332031 43.375 23.855469 44.214844 23.011719 C 44.894531 22.339844 45.039062 22.101562 45.039062 21.871094 C 45.039062 21.558594 44.875 21.332031 44.511719 21.332031 C 44.1875 21.332031 43.746094 21.652344 43.511719 21.800781 C 40.457031 23.75 27.035156 31.570312 21.015625 35.070312 C 20.058594 34.679688 13.417969 31.960938 11.167969 31.042969 C 11.183594 31.035156 11.179688 31.035156 11.195312 31.027344 C 16.417969 28.78125 26.605469 24.394531 35.671875 20.496094 C 40.203125 18.546875 44.457031 16.722656 47.664062 15.347656 C 50.820312 13.992188 53.011719 13.058594 53.261719 12.957031 Z M 53.261719 12.957031 "/>
</g>
</svg>
